<svg xmlns="http://www.w3.org/2000/svg" width="13.501" height="20.243" viewBox="0 0 13.501 20.243">
  <path id="Icon_ionic-ios-arrow-round-down" data-name="Icon ionic-ios-arrow-round-down" d="M24.49,20.784a.919.919,0,0,0-1.294-.007l-4.282,4.268V8.782a.914.914,0,0,0-1.828,0V25.045L12.8,20.77a.925.925,0,0,0-1.294.007.91.91,0,0,0,.007,1.287l5.836,5.794h0a1.026,1.026,0,0,0,.288.19.872.872,0,0,0,.352.07.916.916,0,0,0,.64-.26l5.836-5.794A.9.9,0,0,0,24.49,20.784Z" transform="translate(-11.247 -7.875)" fill="#423ad0"/>
</svg>
