<svg xmlns="http://www.w3.org/2000/svg" width="16" height="16" viewBox="0 0 16 16">
  <path id="Combined-Shape" d="M11.351,0A4.842,4.842,0,0,1,16,5.005v5.989A4.843,4.843,0,0,1,11.351,16h-6.7A4.843,4.843,0,0,1,0,10.995V5.005A4.843,4.843,0,0,1,4.649,0Zm0,1.252h-6.7A3.632,3.632,0,0,0,1.162,5.005v5.989a3.632,3.632,0,0,0,3.487,3.754h6.7a3.631,3.631,0,0,0,3.486-3.754v-.234H12.28a2.779,2.779,0,0,1-2.668-2.87A2.78,2.78,0,0,1,12.28,5.018h2.557V5.005A3.631,3.631,0,0,0,11.351,1.252ZM14.837,6.27H12.28a1.569,1.569,0,0,0-1.506,1.621A1.568,1.568,0,0,0,12.28,9.51h2.557Zm-2.2.943a.628.628,0,0,1,0,1.252h-.242a.628.628,0,0,1,0-1.252Z" transform="translate(0)" fill="#423ad0" fill-rule="evenodd"/>
</svg>
