<svg xmlns="http://www.w3.org/2000/svg" width="19.701" height="19.701" viewBox="0 0 19.701 19.701">
  <path id="Combined-Shape" d="M13.976,0A5.962,5.962,0,0,1,19.7,6.163v7.375A5.963,5.963,0,0,1,13.976,19.7H5.725A5.964,5.964,0,0,1,0,13.538V6.163A5.963,5.963,0,0,1,5.725,0Zm0,1.541H5.725A4.472,4.472,0,0,0,1.431,6.163v7.375A4.472,4.472,0,0,0,5.725,18.16h8.251a4.471,4.471,0,0,0,4.293-4.622V13.25H15.121a3.422,3.422,0,0,1-3.286-3.534,3.423,3.423,0,0,1,3.286-3.538h3.148V6.163A4.471,4.471,0,0,0,13.976,1.541ZM18.269,7.72H15.121a1.932,1.932,0,0,0-1.854,2,1.931,1.931,0,0,0,1.854,1.993h3.148ZM15.557,8.882a.773.773,0,0,1,0,1.541h-.3a.773.773,0,0,1,0-1.541Z" transform="translate(0)" fill="#d4fac9" fill-rule="evenodd"/>
</svg>
